<svg width="26" height="26" viewBox="0 0 26 26" fill="none" xmlns="http://www.w3.org/2000/svg">
<g clip-path="url(#clip0_340_144)">
<path d="M13.3981 5.19604C7.66243 5.19604 2.99609 9.86239 2.99609 15.5981C2.99609 21.3338 7.66243 26.0001 13.3981 26.0001C19.1337 26.0001 23.8001 21.3337 23.8001 15.5981C23.8001 9.86244 19.1338 5.19604 13.3981 5.19604ZM13.3981 24.4766C8.50246 24.4766 4.51953 20.4937 4.51953 15.5981C4.51953 10.7025 8.50246 6.71953 13.3981 6.71953C18.2937 6.71953 22.2766 10.7025 22.2766 15.5981C22.2766 20.4937 18.2937 24.4766 13.3981 24.4766Z" fill="white"/>
<path d="M17.9409 17.5324C17.6216 17.2586 17.1407 17.2953 16.8668 17.6147C15.9971 18.6287 14.7328 19.2103 13.3982 19.2103C12.0638 19.2103 10.7995 18.6288 9.92972 17.6148C9.65581 17.2954 9.17496 17.2587 8.85565 17.5325C8.53633 17.8065 8.49952 18.2874 8.77343 18.6066C9.93297 19.9584 11.6187 20.7337 13.3983 20.7337C15.1779 20.7337 16.8636 19.9584 18.0232 18.6065C18.297 18.2873 18.2602 17.8064 17.9409 17.5324Z" fill="white"/>
<path d="M9.16943 14.3999C9.59011 14.3999 9.93115 14.0589 9.93115 13.6382C9.93115 13.394 10.1299 13.1953 10.3741 13.1953C10.6183 13.1953 10.817 13.394 10.817 13.6382C10.817 14.0589 11.158 14.3999 11.5787 14.3999C11.9994 14.3999 12.3404 14.0589 12.3404 13.6382C12.3404 12.554 11.4583 11.6719 10.3741 11.6719C9.28984 11.6719 8.40771 12.554 8.40771 13.6382C8.40771 14.0589 8.74876 14.3999 9.16943 14.3999Z" fill="white"/>
<path d="M16.4224 11.6719C15.3382 11.6719 14.4561 12.554 14.4561 13.6382C14.4561 14.0589 14.7971 14.4 15.2178 14.4C15.6384 14.4 15.9795 14.0589 15.9795 13.6382C15.9795 13.394 16.1782 13.1953 16.4224 13.1953C16.6666 13.1953 16.8653 13.394 16.8653 13.6382C16.8653 14.0589 17.2064 14.4 17.627 14.4C18.0477 14.4 18.3888 14.0589 18.3888 13.6382C18.3888 12.5539 17.5066 11.6719 16.4224 11.6719Z" fill="white"/>
<path d="M19.6738 4.27881H20.7851C21.2057 4.27881 21.5468 3.93776 21.5468 3.51709C21.5468 3.09642 21.2057 2.75537 20.7851 2.75537H19.6738C19.2532 2.75537 18.9121 3.09642 18.9121 3.51709C18.9121 3.93776 19.2532 4.27881 19.6738 4.27881Z" fill="white"/>
<path d="M22.4561 7.03434C22.8767 7.03434 23.2178 6.69329 23.2178 6.27262V5.16138C23.2178 4.7407 22.8767 4.39966 22.4561 4.39966C22.0354 4.39966 21.6943 4.7407 21.6943 5.16138V6.27262C21.6943 6.69334 22.0354 7.03434 22.4561 7.03434Z" fill="white"/>
<path d="M25.2382 2.75537H24.127C23.7063 2.75537 23.3652 3.09642 23.3652 3.51709C23.3652 3.93776 23.7063 4.27881 24.127 4.27881H25.2382C25.6589 4.27881 25.9999 3.93776 25.9999 3.51709C25.9999 3.09642 25.6589 2.75537 25.2382 2.75537Z" fill="white"/>
<path d="M22.4561 2.63468C22.8767 2.63468 23.2178 2.29364 23.2178 1.87296V0.761719C23.2178 0.341047 22.8767 0 22.4561 0C22.0354 0 21.6943 0.341047 21.6943 0.761719V1.87296C21.6943 2.29364 22.0354 2.63468 22.4561 2.63468Z" fill="white"/>
<path d="M1.64887 3.771H0.761719C0.341047 3.771 0 4.11204 0 4.53271C0 4.95339 0.341047 5.29443 0.761719 5.29443H1.64887C2.06954 5.29443 2.41059 4.95339 2.41059 4.53271C2.41059 4.11204 2.06954 3.771 1.64887 3.771Z" fill="white"/>
<path d="M3.99853 6.98651V6.09937C3.99853 5.67869 3.65749 5.33765 3.23682 5.33765C2.81614 5.33765 2.4751 5.67869 2.4751 6.09937V6.98651C2.4751 7.40719 2.81614 7.74823 3.23682 7.74823C3.65749 7.74823 3.99853 7.40719 3.99853 6.98651Z" fill="white"/>
<path d="M4.82471 5.29443H5.71186C6.13253 5.29443 6.47358 4.95339 6.47358 4.53271C6.47358 4.11204 6.13253 3.771 5.71186 3.771H4.82471C4.40404 3.771 4.06299 4.11204 4.06299 4.53271C4.06299 4.95339 4.40404 5.29443 4.82471 5.29443Z" fill="white"/>
<path d="M3.23682 3.72797C3.65749 3.72797 3.99853 3.38692 3.99853 2.96625V2.0791C3.99853 1.65843 3.65749 1.31738 3.23682 1.31738C2.81614 1.31738 2.4751 1.65843 2.4751 2.0791V2.96625C2.4751 3.38692 2.81614 3.72797 3.23682 3.72797Z" fill="white"/>
</g>
<defs>
<clipPath id="clip0_340_144">
<rect width="26" height="26" fill="white"/>
</clipPath>
</defs>
</svg>
