<svg width="20" height="34" viewBox="0 0 20 34" fill="none" xmlns="http://www.w3.org/2000/svg">
<path d="M16.9062 0.53125H3.09375C2.53039 0.531988 1.99032 0.756108 1.59196 1.15446C1.19361 1.55282 0.969488 2.09289 0.96875 2.65625V31.3438C0.969488 31.9071 1.19361 32.4472 1.59196 32.8455C1.99032 33.2439 2.53039 33.468 3.09375 33.4688H16.9062C17.4696 33.468 18.0097 33.2439 18.408 32.8455C18.8064 32.4472 19.0305 31.9071 19.0312 31.3438V2.65625C19.0305 2.09289 18.8064 1.55282 18.408 1.15446C18.0097 0.756108 17.4696 0.531988 16.9062 0.53125ZM12.4862 1.59375L12.1874 2.65625H7.75879L7.49316 1.59375H12.4862ZM17.9688 31.3438C17.9684 31.6254 17.8563 31.8955 17.6571 32.0946C17.458 32.2938 17.1879 32.4059 16.9062 32.4062H3.09375C2.81207 32.4059 2.54203 32.2938 2.34286 32.0946C2.14368 31.8955 2.03162 31.6254 2.03125 31.3438V2.65625C2.03162 2.37457 2.14368 2.10453 2.34286 1.90536C2.54203 1.70618 2.81207 1.59412 3.09375 1.59375H6.39746L6.82844 3.31633C6.85717 3.43126 6.92348 3.53329 7.01685 3.6062C7.11022 3.67912 7.22528 3.71873 7.34375 3.71875H12.5898C12.7056 3.71875 12.8182 3.68093 12.9105 3.61104C13.0028 3.54116 13.0698 3.44303 13.1012 3.3316L13.5899 1.59375H16.9062C17.1879 1.59412 17.458 1.70618 17.6571 1.90536C17.8563 2.10453 17.9684 2.37457 17.9688 2.65625V31.3438Z" fill="#BB3800"/>
<path d="M7.34375 30.2812H3.625C3.4841 30.2812 3.34898 30.3372 3.24935 30.4368C3.14972 30.5365 3.09375 30.6716 3.09375 30.8125C3.09375 30.9534 3.14972 31.0885 3.24935 31.1882C3.34898 31.2878 3.4841 31.3438 3.625 31.3438H7.34375C7.48465 31.3438 7.61977 31.2878 7.7194 31.1882C7.81903 31.0885 7.875 30.9534 7.875 30.8125C7.875 30.6716 7.81903 30.5365 7.7194 30.4368C7.61977 30.3372 7.48465 30.2812 7.34375 30.2812Z" fill="#BB3800"/>
<path d="M9.46875 30.2812H8.9375C8.7966 30.2812 8.66148 30.3372 8.56185 30.4368C8.46222 30.5365 8.40625 30.6716 8.40625 30.8125C8.40625 30.9534 8.46222 31.0885 8.56185 31.1882C8.66148 31.2878 8.7966 31.3438 8.9375 31.3438H9.46875C9.60965 31.3438 9.74477 31.2878 9.8444 31.1882C9.94403 31.0885 10 30.9534 10 30.8125C10 30.6716 9.94403 30.5365 9.8444 30.4368C9.74477 30.3372 9.60965 30.2812 9.46875 30.2812Z" fill="#BB3800"/>
<path d="M11.8671 13.8882C11.8073 13.8523 11.741 13.8286 11.672 13.8183C11.6029 13.808 11.5326 13.8114 11.4649 13.8284C11.3972 13.8453 11.3335 13.8754 11.2775 13.9169C11.2214 13.9584 11.1741 14.0106 11.1382 14.0704L7.95071 19.3829C7.87822 19.5038 7.85669 19.6484 7.89086 19.7851C7.92504 19.9218 8.01211 20.0393 8.13293 20.1118C8.25375 20.1843 8.39841 20.2058 8.53511 20.1717C8.6718 20.1375 8.78931 20.0504 8.8618 19.9296L12.0493 14.6171C12.0852 14.5573 12.109 14.491 12.1192 14.4219C12.1295 14.3529 12.1261 14.2826 12.1092 14.2149C12.0922 14.1472 12.0621 14.0835 12.0206 14.0275C11.9791 13.9714 11.9269 13.9241 11.8671 13.8882Z" fill="#BB3800"/>
<path d="M13.6024 14.0116C13.5588 13.9571 13.5049 13.9117 13.4438 13.8781C13.3827 13.8445 13.3155 13.8232 13.2462 13.8155C13.1061 13.8 12.9656 13.8407 12.8556 13.9288C12.7456 14.0168 12.675 14.145 12.6595 14.2851C12.644 14.4251 12.6847 14.5656 12.7728 14.6756L14.6321 16.9999L12.7728 19.3241C12.6847 19.4341 12.644 19.5746 12.6595 19.7147C12.675 19.8547 12.7456 19.9829 12.8556 20.071C12.9656 20.159 13.1061 20.1998 13.2462 20.1842C13.3862 20.1687 13.5144 20.0982 13.6024 19.9881L15.7274 17.3319C15.8029 17.2377 15.844 17.1206 15.844 16.9999C15.844 16.8792 15.8029 16.7621 15.7274 16.6678L13.6024 14.0116Z" fill="#BB3800"/>
<path d="M6.39779 19.9884C6.48585 20.0984 6.61401 20.1689 6.75408 20.1845C6.89414 20.2 7.03464 20.1593 7.14466 20.0712C7.25469 19.9831 7.32522 19.855 7.34075 19.7149C7.35628 19.5748 7.31553 19.4343 7.22747 19.3243L5.3681 17.0001L7.22747 14.6759C7.27107 14.6214 7.30352 14.5589 7.32296 14.4919C7.34239 14.4248 7.34844 14.3547 7.34075 14.2853C7.33306 14.2159 7.31179 14.1488 7.27814 14.0877C7.2445 14.0265 7.19914 13.9726 7.14466 13.929C7.09019 13.8854 7.02765 13.853 6.96064 13.8335C6.89362 13.8141 6.82343 13.808 6.75408 13.8157C6.68472 13.8234 6.61756 13.8447 6.55643 13.8783C6.4953 13.912 6.4414 13.9573 6.39779 14.0118L4.27279 16.6681C4.19735 16.7623 4.15625 16.8794 4.15625 17.0001C4.15625 17.1208 4.19735 17.2379 4.27279 17.3321L6.39779 19.9884Z" fill="#BB3800"/>
</svg>
