<svg width="33" height="33" viewBox="0 0 33 33" fill="none" xmlns="http://www.w3.org/2000/svg">
<path d="M31.7197 15.6592L17.5987 1.53809C16.6069 0.546399 15.2885 0 13.886 0H3.00003C1.34543 0 0 1.34543 0 3.00003V13.886C0 15.2886 0.546399 16.607 1.53809 17.5987L15.6592 31.7197C16.4729 32.5335 17.5994 33 18.75 33C19.9006 33 21.027 32.5335 21.8408 31.7197L31.7197 21.8408C32.5334 21.0271 32.9999 19.9006 32.9999 18.75C32.9999 17.5994 32.5335 16.4729 31.7197 15.6592ZM30.6592 20.7803L20.7803 30.6592C19.711 31.7285 17.7891 31.7285 16.7198 30.6592L2.59861 16.5381C1.89035 15.8298 1.49998 14.8879 1.49998 13.886V3.00003C1.49998 2.17315 2.17308 1.50005 2.99995 1.50005H13.886C14.888 1.50005 15.8299 1.89042 16.5381 2.59868L30.6592 16.7198C31.1939 17.2544 31.5 17.9942 31.5 18.75C31.5 19.5059 31.1939 20.2456 30.6592 20.7803Z" fill="#5FC400"/>
<path d="M6.00002 3C4.3455 3 3 4.34543 3 6.00003C3 7.65462 4.3455 8.99998 6.00002 8.99998C7.65455 8.99998 9.00005 7.65455 9.00005 5.99995C9.00005 4.34536 7.65462 3 6.00002 3ZM6.00002 7.5C5.17315 7.5 4.50005 6.8269 4.50005 5.99995C4.50005 5.17308 5.17315 4.49998 6.00002 4.49998C6.8269 4.49998 7.5 5.17308 7.5 5.99995C7.50007 6.8269 6.82697 7.5 6.00002 7.5Z" fill="#5FC400"/>
<path d="M12.9502 15.0725C13.8276 14.1951 13.8276 12.7676 12.9502 11.8902C12.658 11.598 12.658 11.1219 12.9502 10.8304L13.482 10.2994C13.7625 10.0159 14.2569 10.0159 14.5418 10.2994C14.6831 10.4415 14.7615 10.6297 14.7615 10.8297C14.7615 11.0303 14.6839 11.2179 14.5418 11.3592C14.2488 11.6522 14.2488 12.1268 14.5411 12.4205C14.8341 12.7135 15.3094 12.7127 15.6024 12.4212C16.0272 11.9964 16.2616 11.431 16.2616 10.8297C16.2616 10.2291 16.0272 9.66368 15.6024 9.23885C14.7528 8.38849 13.2689 8.39067 12.4208 9.23814L11.889 9.76914C11.013 10.6473 11.013 12.0741 11.8897 12.9508C12.1819 13.2438 12.1819 13.7191 11.8897 14.0121L11.3587 14.5424C11.0767 14.8266 10.5838 14.8251 10.2989 14.5424C10.1575 14.4003 10.0791 14.2121 10.0791 14.0121C10.0791 13.8114 10.1568 13.6232 10.2989 13.4826C10.5919 13.1896 10.5919 12.715 10.2996 12.4213C10.0066 12.1283 9.53127 12.129 9.23828 12.4206C8.81345 12.8454 8.5791 13.4108 8.5791 14.0121C8.5791 14.6127 8.81345 15.1781 9.23828 15.6029C9.66311 16.0277 10.2285 16.2621 10.8291 16.2621C11.4304 16.2621 11.9959 16.0277 12.4199 15.6029L12.9502 15.0725Z" fill="#5FC400"/>
<path d="M17.7237 17.7239C18.0167 17.4309 18.0167 16.9563 17.7237 16.6633L16.6631 15.6028L18.254 14.012L19.8455 15.6028C20.1385 15.8958 20.6131 15.8958 20.906 15.6028C21.199 15.3098 21.199 14.8352 20.906 14.5423L18.7842 12.4212C18.4912 12.1282 18.0166 12.1282 17.7237 12.4212L12.4209 17.7239C12.1279 18.0169 12.1279 18.4915 12.4209 18.7844L14.542 20.9063C14.6885 21.0527 14.8804 21.126 15.0723 21.126C15.2642 21.126 15.4561 21.0527 15.6026 20.9063C15.8956 20.6133 15.8956 20.1387 15.6026 19.8457L14.0118 18.2542L15.6026 16.6634L16.6631 17.7239C16.8096 17.8704 17.0016 17.9436 17.1934 17.9436C17.3853 17.9436 17.5772 17.8703 17.7237 17.7239Z" fill="#5FC400"/>
<path d="M20.9059 17.7231C20.9059 17.7238 20.9059 17.7238 20.9059 17.7238L17.7228 20.9062C16.8475 21.7836 16.8475 23.2104 17.7235 24.0878C18.1622 24.5266 18.7386 24.7463 19.3143 24.7463C19.8907 24.7463 20.4671 24.5266 20.9058 24.0878L24.0875 20.9062C24.9649 20.0287 24.9649 18.6013 24.0875 17.7231C23.2101 16.8472 21.7833 16.8472 20.9059 17.7231ZM23.027 19.8457L19.8454 23.0274C19.5531 23.3196 19.0771 23.3211 18.7848 23.0274C18.4926 22.7351 18.4926 22.2591 18.7841 21.9668L21.9665 18.7852C22.258 18.4922 22.7356 18.493 23.027 18.7845C23.3192 19.0774 23.3192 19.5527 23.027 19.8457Z" fill="#5FC400"/>
</svg>
